# xmcd CD database file
#
# Track frame offsets:
#	150
#	18694
#	37025
#	53150
#	67565
#	82634
#	98780
#	115712
#	132031
#	149236
#
# Disc length: 2242 seconds
#
# Revision: 0
# Processed by: cddbd v1.5.2PL0 Copyright (c) Steve Scherf et al.
# Submitted via: CDex 1.70beta2
#
DISCID=7d08c00a
DTITLE=Kim Yarson - Satisfied
DYEAR=2008
DGENRE=Country
TTITLE0=Come Back
TTITLE1=Then I Woke Up
TTITLE2=I Hate Goodbyes
TTITLE3=Satisfied
TTITLE4=I Am Soul
TTITLE5=Expectation Vacation
TTITLE6=Once More
TTITLE7=The Art of Letting Go
TTITLE8=Butterfly
TTITLE9=Promise Me
EXTD=YEAR: 2008
EXTT0=
EXTT1=
EXTT2=
EXTT3=
EXTT4=
EXTT5=
EXTT6=
EXTT7=
EXTT8=
EXTT9=
PLAYORDER=
